<svg xmlns="http://www.w3.org/2000/svg" width="272.55" height="73.767" viewBox="0 0 272.55 73.767">
  <g id="Logo" transform="translate(-163.45 -44)">
    <text id="Tweezy" transform="translate(275 95)" fill="#fff" font-size="42" font-family="Poppins-Bold, Poppins" font-weight="700"><tspan x="0" y="0">Tweezy</tspan></text>
    <g id="twezzylogo" transform="translate(153.122 14.834)">
      <path id="Path_5" data-name="Path 5" d="M319.861,137.079a14.676,14.676,0,0,0-10.639-7.544,31.943,31.943,0,0,0-10.088-.036,25.471,25.471,0,0,0-4.764,1.019,33.567,33.567,0,0,1-4.8,1.689.826.826,0,0,1-.923-.488q-.443.613-.851,1.256a15.178,15.178,0,0,1-1.019,2.409c-.5,1.106-1.061,2.212-1.682,3.29a26.241,26.241,0,0,0-1.322,8.262,25.938,25.938,0,0,0,4.365,14.486c1.529-.218,3.054-.467,4.582-.757,4.666-.888,9.507-2.023,13.357-4.921a.769.769,0,0,1,.778-.852h.565a.816.816,0,0,1,.572,1.379c-4.231,3.587-9.633,4.964-14.967,5.975-1.274.242-2.546.454-3.821.646a23.656,23.656,0,0,0,17.427,9.231q.463-.274.92-.552a33.43,33.43,0,0,0,8.43-7.006,27.19,27.19,0,0,0,6.01-14.633A22.71,22.71,0,0,0,319.861,137.079Zm-9.723,7.885a10.08,10.08,0,0,0-6.86.518,18.992,18.992,0,0,0-5.563,4.354.815.815,0,0,1-1.35-.357c-1.769-5.689,2.089-10.348,5.274-14.622a1.3,1.3,0,0,1,2.071,1.041c-1.606,3.34-4.743,6.338-5.487,10.045a23.269,23.269,0,0,1,2.328-1.808,9.179,9.179,0,0,1,4.273-1.445,31.394,31.394,0,0,1,3.655-.11c.909.027,2.2,0,2.895.694a.81.81,0,0,1-.383,1.345A.8.8,0,0,1,310.138,144.963Zm4.286,10.135a2.49,2.49,0,0,1-.8.045,2.165,2.165,0,0,1-.693-.006,2.6,2.6,0,0,1-1.706-.869,2.03,2.03,0,0,1-.51-1.387,2.052,2.052,0,0,1,.061-1.577,1.87,1.87,0,0,1,.573-1.119,2.128,2.128,0,0,1,1.283-.538,2.21,2.21,0,0,1,3.38,1.377,3.333,3.333,0,0,1,.069.881,2.584,2.584,0,0,1,.066.318A2.519,2.519,0,0,1,314.424,155.1Z" transform="translate(-228.837 -83.814)" fill="#fff" stroke="#fff" stroke-miterlimit="10" stroke-width="1"/>
      <path id="Path_6" data-name="Path 6" d="M337.749,83.3a23.568,23.568,0,0,0-18.3,8.848c1.842-.429,3.5-1.409,5.329-1.887a38.243,38.243,0,0,1,5.872-.986,28.626,28.626,0,0,1,11.063.793,16.118,16.118,0,0,1,10.15,9.218,25.933,25.933,0,0,1,1.382,14.318,28.6,28.6,0,0,1-7.894,15.537,35.108,35.108,0,0,1-5.686,4.514c12.39-1.024,22.141-11.887,22.141-25.138C361.807,94.591,351.035,83.3,337.749,83.3Z" transform="translate(-258.757 -45.394)" fill="#fff" stroke="#fff" stroke-miterlimit="10" stroke-width="1"/>
      <path id="Path_7" data-name="Path 7" d="M21.561,318.6a16.123,16.123,0,0,1,2.875-8.03,17.856,17.856,0,0,1,1.539-1.918c-1.085-1.744-2.087-3.539-3.011-5.371-1.225-2.433-2.318-4.93-3.306-7.468q-.472-1.211-.9-2.439c-2.68,1.437-5.752,3.687-7.126,7.3-3.523,9.255,6.222,21.894,10.6,23.049A10.27,10.27,0,0,1,21.561,318.6Z" transform="translate(0 -221.551)" fill="#fff" stroke="#fff" stroke-miterlimit="10" stroke-width="1"/>
      <path id="Path_8" data-name="Path 8" d="M89.338,398.022a14.538,14.538,0,0,0-2.636,6.956c-.126,1.476-.252,3.608.647,4.948.622-1.049-.008-3.54,1.673-6.477a10.732,10.732,0,0,1,3.561-3.658q-1.155-1.511-2.2-3.1A15.06,15.06,0,0,0,89.338,398.022Z" transform="translate(-63.509 -308.191)" fill="#fff" stroke="#fff" stroke-miterlimit="10" stroke-width="1"/>
      <path id="Path_9" data-name="Path 9" d="M346.219,123.938c.341-.089.683-.168,1.027-.245l-.153-.232q-1.034.4-2.073.859C345.414,124.177,345.813,124.044,346.219,123.938Z" transform="translate(-280.199 -79.071)" fill="#fff" stroke="#fff" stroke-miterlimit="10" stroke-width="1"/>
      <path id="Path_10" data-name="Path 10" d="M375.62,191.46a9.179,9.179,0,0,1,4.273-1.445c.157-.013.315-.023.473-.034l-2.933-4.431c-1.611,2.472-3.573,4.888-4.143,7.718A23.233,23.233,0,0,1,375.62,191.46Z" transform="translate(-303.905 -131.137)" fill="#fff" stroke="#fff" stroke-miterlimit="10" stroke-width="1"/>
      <path id="Path_11" data-name="Path 11" d="M243.394,206.875c-.559.562-1.148,1.095-1.756,1.6a21.384,21.384,0,0,1-2.036,1.8q-.308.274-.622.539a22.585,22.585,0,0,0,4.172-3.576c.121-.137.237-.281.354-.423C243.468,206.838,243.431,206.859,243.394,206.875Z" transform="translate(-191.278 -148.973)" fill="#fff" stroke="#fff" stroke-miterlimit="10" stroke-width="1"/>
      <path id="Path_12" data-name="Path 12" d="M133.194,159.078a2.141,2.141,0,0,1-.634-.013,2.6,2.6,0,0,1-1.706-.869,2.03,2.03,0,0,1-.51-1.387,2.052,2.052,0,0,1,.061-1.577,2.029,2.029,0,0,1,.061-.278l-4.238-6.4a9.382,9.382,0,0,0-3.324.857,18.992,18.992,0,0,0-5.563,4.354.815.815,0,0,1-1.35-.357c-1.622-5.219,1.492-9.573,4.477-13.556l-4.005-6.051a18.324,18.324,0,0,0-2.467.644,33.571,33.571,0,0,1-4.8,1.689.837.837,0,0,1-.957-.57c-.232.136-.465.276-.7.417a8.676,8.676,0,0,1-1.14,3.33,27.425,27.425,0,0,1-7.2,10.035,38.789,38.789,0,0,1-4.483,3.148,6.507,6.507,0,0,1-1.627.985,15.905,15.905,0,0,1-2.6,1.5,10.974,10.974,0,0,1-6.131,1.245c-4.607,1.124-7.471-.928-13.956,1.845-.5.213-1.09.467-1.732.767q.525,1.521,1.117,3.016,1.414,3.6,3.161,7.052c.825,1.622,1.711,3.217,2.665,4.771,5.964-5.387,15.006-6.512,22.737-7.255,4.7-.452,9.347-.943,13.992-1.827,4.666-.888,9.507-2.023,13.357-4.921a.769.769,0,0,1,.778-.852h.565a.816.816,0,0,1,.571,1.379c-4.231,3.587-9.633,4.964-14.967,5.975-4.465.848-8.928,1.356-13.449,1.781a69.421,69.421,0,0,0-13.6,2.238,23.394,23.394,0,0,0-9.105,4.874q1.162,1.782,2.46,3.471c6.527-3.277,16.523-2.846,22.245-2.6,7.857.339,8.238,1.574,12.235,1.009,9.57-1.354,16.365-9.7,20.621-16.572Z" transform="translate(-48.462 -87.742)" fill="#fff" stroke="#fff" stroke-miterlimit="10" stroke-width="1"/>
      <g id="Group_3" data-name="Group 3" transform="translate(79.282 29.289)">
        <g id="Group_2" data-name="Group 2" transform="translate(0 0)">
          <path id="Path_13" data-name="Path 13" d="M437.259,39.49a12.579,12.579,0,0,1-.94-2.223,9.077,9.077,0,0,1-.475-2.338,2.272,2.272,0,0,1,.6-1.737,5.851,5.851,0,0,1,1.409-.969,9.645,9.645,0,0,0,1.766-1.145h-.572a7.545,7.545,0,0,1,1.279,7.223,6.918,6.918,0,0,1-1.019,1.92l.738.1a32.79,32.79,0,0,1-.355-7.069.407.407,0,0,0-.752-.2,5.665,5.665,0,0,0-.325,4.545c.126.341.284.786.685.883.505.121.728-.358.878-.739a5.3,5.3,0,0,0,.349-2.244,5.468,5.468,0,0,0-.739-2.455.408.408,0,0,0-.738.1,7.29,7.29,0,0,0,.418,4.99.406.406,0,0,0,.7,0,5.86,5.86,0,0,0,.089-4.832.408.408,0,0,0-.738.1,9.768,9.768,0,0,0,.144,4.561.407.407,0,0,0,.778,0,6.975,6.975,0,0,0,.371-3.539c-.058-.394-.705-.376-.778,0a19.24,19.24,0,0,0-.337,4.675.4.4,0,0,0,.807,0q0-1.494.01-2.988a.405.405,0,0,0-.793-.107,10.3,10.3,0,0,0-.551,3.456.411.411,0,0,0,.3.389.4.4,0,0,0,.455-.186,9.065,9.065,0,0,0,.672-4.662.4.4,0,0,0-.807,0c-.04.415-.081.831-.123,1.246-.044.449.723.557.793.107a7.039,7.039,0,0,0-.376-3.647.408.408,0,0,0-.778,0,2.605,2.605,0,0,0-.031,1.861.406.406,0,0,0,.793-.107,3.926,3.926,0,0,0-1.036-2.795.41.41,0,0,0-.489-.063.425.425,0,0,0-.186.455,7.466,7.466,0,0,0,.462,1.7.409.409,0,0,0,.442.289.4.4,0,0,0,.35-.4,5.009,5.009,0,0,0-.337-1.718.422.422,0,0,0-.389-.3.409.409,0,0,0-.389.3q-.133.533-.266,1.064l.793.107c.023-.258.045-.517.066-.773a.408.408,0,0,0-.689-.286,3.368,3.368,0,0,0-.954,1.861.4.4,0,0,0,.778.215,4.893,4.893,0,0,0,.253-2.652.4.4,0,0,0-.592-.241,4.023,4.023,0,0,0-1.589,3.358.407.407,0,0,0,.752.2,3.843,3.843,0,0,0,.5-1.8.408.408,0,0,0-.689-.286,3.464,3.464,0,0,0-.523,4.118.409.409,0,0,0,.7,0,3.937,3.937,0,0,0,.45-3.579.41.41,0,0,0-.738-.1,4.443,4.443,0,0,0-.19,3.96c.242.555.83,1.5,1.555,1.027a1.32,1.32,0,0,0,.434-.941,4.351,4.351,0,0,0-.764-3.263.409.409,0,0,0-.7,0,4.151,4.151,0,0,0,.449,4.533.406.406,0,0,0,.634-.082,5.831,5.831,0,0,0-.084-4.766.406.406,0,0,0-.7,0,5.262,5.262,0,0,0,.5,5.444.41.41,0,0,0,.738-.1,3.541,3.541,0,0,0-1.233-4.023.408.408,0,0,0-.592.241,4.2,4.2,0,0,0,1.051,4.417.41.41,0,0,0,.675-.178,3.26,3.26,0,0,0-1.379-3.931.41.41,0,0,0-.592.241,3.868,3.868,0,0,0,.16,3.127.406.406,0,0,0,.752-.2,8.581,8.581,0,0,0-1.3-3.873.4.4,0,0,0-.7.407l.91,1.968c.194.418.864.121.738-.312q-.487-1.659-.972-3.316l-.778.215,1.706,4.37a.407.407,0,0,0,.442.289.4.4,0,0,0,.35-.4q-.252-2.177-.5-4.354l-.752.2q1.012,2.383,2.024,4.764c.163.384.754.168.752-.2a23.151,23.151,0,0,0-.7-5.581c-.128-.507-.885-.291-.778.215l1.007,4.821a.4.4,0,0,0,.442.289.412.412,0,0,0,.35-.4,21.5,21.5,0,0,0-.021-4.454l-.793.107q.276,1.373.551,2.748a.4.4,0,0,0,.442.289.409.409,0,0,0,.35-.4,7.829,7.829,0,0,0-.9-4.323c-.179-.336-.8-.2-.752.2a5.3,5.3,0,0,0,.6,1.934.407.407,0,0,0,.752-.2c0-.46,0-.92.008-1.38l-.793.107a27.568,27.568,0,0,0,.982,3.088.407.407,0,0,0,.778,0,1.743,1.743,0,0,0-.255-1.511.41.41,0,0,0-.738.1,30.9,30.9,0,0,0-.89,4.9h.807q0-1.434.01-2.869a.405.405,0,0,0-.793-.107,12.649,12.649,0,0,0-.481,2.777.408.408,0,0,0,.4.4.412.412,0,0,0,.4-.4,9.56,9.56,0,0,0-.179-2.977.408.408,0,0,0-.738-.1,3.619,3.619,0,0,0-.262,3.083.406.406,0,0,0,.793-.107,21.818,21.818,0,0,0-.066-5.581.4.4,0,0,0-.442-.289.412.412,0,0,0-.35.4q-.165,1.484-.328,2.967h.807c0-.613-.008-1.227-.011-1.842,0-.439-.714-.57-.793-.107q-.143.84-.22,1.69c-.023.271-.04.544-.052.815a3.474,3.474,0,0,0,.015.788c.084.449.626.864,1.024.462.312-.315.231-.994-.312-.961a.413.413,0,0,0-.4.4.268.268,0,0,1,.174-.2c.066-.026.023.019.011,0,.042.008.048.008.018,0a.374.374,0,0,1-.057-.016c.05.024-.014-.008-.032-.019.011.008-.069-.089-.039-.026-.013-.026-.045-.161-.065-.231-.1-.391-.274-.8-.712-.9a.406.406,0,0,0-.51.389c.047.517.092,1.033.139,1.55l.689-.286a4.186,4.186,0,0,1-1.279-3.064,4.107,4.107,0,0,1,2.956-3.813c-.1-.245-.207-.492-.312-.738a8.243,8.243,0,0,0-3.527,3.2,5.329,5.329,0,0,0-.425,4.372,4.281,4.281,0,0,0,1.485,2.018c.341.252.736-.226.552-.552a7.323,7.323,0,0,1-1.088-4.184,3.83,3.83,0,0,1,1.879-2.99,2.672,2.672,0,0,1,1.823-.341c-.06-.224-.119-.45-.178-.675a8.249,8.249,0,0,0-2.254,4.367c-.268,1.577-.149,3.526,1.211,4.6a2.68,2.68,0,0,0,2.462.533.4.4,0,0,0,.283-.283,5.828,5.828,0,0,0-.119-1.942,8.011,8.011,0,0,1-.244-1.792,4.43,4.43,0,0,1,1.333-2.887,7.907,7.907,0,0,1,2.909-1.784,14.906,14.906,0,0,1,3.645-.867,15.252,15.252,0,0,1,4.294.14c-.1-.129-.2-.26-.3-.389a9.875,9.875,0,0,1-1.553,5.315,9.735,9.735,0,0,1-4.07,3.544,9.585,9.585,0,0,1-2.887.839l.286.689a4.393,4.393,0,0,0,1.091-1.518,1.858,1.858,0,0,0-.136-1.582c-.689-1.085-2.2-.659-2.772.308a4.4,4.4,0,0,0-.447,2.116.41.41,0,0,0,.4.4,3.324,3.324,0,0,0,2.927-2.418c.129-.323.232-.655.329-.99a1.332,1.332,0,0,0,.037-1.082c-.371-.618-1.232-.326-1.734-.073a3.385,3.385,0,0,0-1.85,2.953,1.271,1.271,0,0,0,1.241,1.259,2.545,2.545,0,0,0,1.777-.856,3.106,3.106,0,0,0,1.093-1.621,1.692,1.692,0,0,0-.507-1.6c-1.14-.956-2.7.481-3.258,1.451a2.217,2.217,0,0,0-.352,1.961,1.205,1.205,0,0,0,1.566.4,3.405,3.405,0,0,0,1.272-1.484,2.412,2.412,0,0,0,.344-1.9,1.434,1.434,0,0,0-1.461-1.053,3.122,3.122,0,0,0-1.771.8,3.814,3.814,0,0,0-1.057,1.5,2.324,2.324,0,0,0-.066,1.921,1.453,1.453,0,0,0,1.59.536,3.525,3.525,0,0,0,1.631-.848,2.332,2.332,0,0,0,.817-1.622,1.879,1.879,0,0,0-.625-1.5c-1.154-.952-2.556.157-3.113,1.224a2.538,2.538,0,0,0-.3,1.968,1.577,1.577,0,0,0,1.513,1c1.4.008,2.342-1.474,2.741-2.643.208-.612.446-1.492-.213-1.915a1.656,1.656,0,0,0-1.7.152,2.827,2.827,0,0,0-1.148,1.421c-.2.531-.316,1.408.174,1.818a1.679,1.679,0,0,0,1.758-.077,3.473,3.473,0,0,0,1.172-1.175,8.044,8.044,0,0,0,.752-1.556,1.07,1.07,0,0,0,.019-1.009.842.842,0,0,0-.8-.333,2.9,2.9,0,0,0-1.581.9,4.657,4.657,0,0,0-1.033,1.5,4.558,4.558,0,0,0-.376,1.773.416.416,0,0,0,.3.389,1.625,1.625,0,0,0,1.61-.344,2.855,2.855,0,0,0,.833-1.556c.132-.541.226-1.229-.316-1.584a1.289,1.289,0,0,0-1.535.323,4.038,4.038,0,0,0-1.011,1.723c-.155.5.623.709.778.215a3.332,3.332,0,0,1,.741-1.306.86.86,0,0,1,.513-.3c.1,0,.134.11.132.241a2.756,2.756,0,0,1-.142.7,2.407,2.407,0,0,1-.312.7.916.916,0,0,1-1.077.407c.1.129.2.26.3.389a3.778,3.778,0,0,1,.927-2.446,3.71,3.71,0,0,1,1.027-.833.844.844,0,0,1,.237-.092s.076-.013.042-.008c0,0,.136-.019.081,0,.1-.029.013.042.01-.008s-.013-.019-.018-.016a1.684,1.684,0,0,0-.118.354,4.734,4.734,0,0,1-1.3,2.084,1.507,1.507,0,0,1-.92.344c-.178,0-.19-.032-.205-.216a1.726,1.726,0,0,1,.074-.628,2,2,0,0,1,.681-1,1.159,1.159,0,0,1,.959-.294.15.15,0,0,1,.092.061.431.431,0,0,1,.013.244,3.921,3.921,0,0,1-.223.833,4.181,4.181,0,0,1-.741,1.28,1.753,1.753,0,0,1-1.046.667.822.822,0,0,1-.886-.428,1.692,1.692,0,0,1,.22-1.29,2.525,2.525,0,0,1,.919-1.049.864.864,0,0,1,.961-.023,1.076,1.076,0,0,1,.368.917c-.034.815-.923,1.432-1.643,1.642-.281.082-.723.14-.877-.092-.216-.328-.016-.935.113-1.266a2.9,2.9,0,0,1,1.786-1.7c.391-.116.785-.069.952.345a1.439,1.439,0,0,1-.163,1.19c-.121.231-.263.449-.405.667a2.363,2.363,0,0,1-.439.541.6.6,0,0,1-.405.161.4.4,0,0,1-.268-.1c-.09-.178.036-.468.092-.636a3.207,3.207,0,0,1,1.19-1.569c.316-.215.809-.492,1.122-.194a.925.925,0,0,1,.173.951,2.748,2.748,0,0,1-.857,1.088,1.71,1.71,0,0,1-1.156.6c-.914-.079-.279-1.466.023-1.889a2.647,2.647,0,0,1,.965-.82,1.689,1.689,0,0,1,.538-.186s.15,0,.144.011-.073-.063-.055-.068a1.615,1.615,0,0,1-.039.216,4.907,4.907,0,0,1-1.369,2.652,1.83,1.83,0,0,1-1.187.429l.4.4a3.393,3.393,0,0,1,.371-1.766,1.026,1.026,0,0,1,1.033-.479.8.8,0,0,1,.431.951,2.928,2.928,0,0,1-.951,1.4c-.221.226-.079.735.286.689a10.78,10.78,0,0,0,5.4-2.273,10.578,10.578,0,0,0,3.913-8.233.408.408,0,0,0-.3-.389,16.067,16.067,0,0,0-7.982.589c-2.273.777-4.62,2.281-5.131,4.808a5.468,5.468,0,0,0,.048,2.136,6.814,6.814,0,0,1,.25,2.162l.283-.283a1.858,1.858,0,0,1-1.687-.336,2.773,2.773,0,0,1-.983-1.676,6.587,6.587,0,0,1,.622-4.126,7.506,7.506,0,0,1,1.414-2.01.407.407,0,0,0-.178-.675,3.881,3.881,0,0,0-3.729,1.537,5.342,5.342,0,0,0-.851,4.512,9.656,9.656,0,0,0,1.053,2.652l.552-.552a3.825,3.825,0,0,1-1.367-3.306,5.323,5.323,0,0,1,1.827-3.519,8.775,8.775,0,0,1,2.007-1.369.406.406,0,0,0-.312-.738,5,5,0,0,0-2.98,2.407,4.831,4.831,0,0,0-.289,3.884,4.948,4.948,0,0,0,1.235,1.936c.234.223.722.081.689-.286-.047-.517-.092-1.033-.139-1.55l-.51.389c.076.018,0-.034.047.024-.026-.034.034.076.032.073.029.068.058.2.084.291a1.071,1.071,0,0,0,.41.655c.429.3,1.141.208,1.149-.423l-.4.4c-.158-.412-.258-.526-.3-.345l.015-.039c.073-.082.4-.129.375-.04.006-.024-.023-.153-.023-.2,0-.312.018-.623.039-.933a17.727,17.727,0,0,1,.216-1.824l-.793-.107c0,.613.008,1.227.011,1.842a.4.4,0,1,0,.807,0q.165-1.484.328-2.967l-.793.107a21.023,21.023,0,0,1,.039,5.366l.793-.107a2.845,2.845,0,0,1,.179-2.462l-.738-.1a8.771,8.771,0,0,1,.15,2.762h.807a11.6,11.6,0,0,1,.452-2.562l-.793-.107q0,1.434-.01,2.869a.4.4,0,0,0,.807,0,29.532,29.532,0,0,1,.86-4.682l-.738.1a.979.979,0,0,1,.174.888h.778a28.008,28.008,0,0,1-.982-3.088.405.405,0,0,0-.793.107c0,.46,0,.92-.008,1.38l.752-.2a4.252,4.252,0,0,1-.486-1.527l-.752.2a7.061,7.061,0,0,1,.791,3.917l.793-.107q-.276-1.373-.551-2.748c-.089-.439-.843-.349-.793.107a21.5,21.5,0,0,1,.021,4.454l.793-.107-1.007-4.821-.778.215a22.115,22.115,0,0,1,.675,5.366l.752-.2q-1.012-2.383-2.024-4.764a.407.407,0,0,0-.752.2q.252,2.177.5,4.354l.793-.107-1.706-4.37a.417.417,0,0,0-.5-.283.409.409,0,0,0-.283.5q.487,1.659.972,3.316c.245-.1.492-.207.738-.312l-.91-1.968-.7.407a7.707,7.707,0,0,1,1.188,3.464l.752-.2a3.08,3.08,0,0,1-.079-2.506l-.592.241a2.46,2.46,0,0,1,1.007,3.019l.675-.178a3.406,3.406,0,0,1-.843-3.632l-.592.241a2.734,2.734,0,0,1,.862,3.111l.738-.1a4.476,4.476,0,0,1-.5-4.63h-.7a4.946,4.946,0,0,1,.084,3.95l.634-.082a3.311,3.311,0,0,1-.323-3.555h-.7a3.58,3.58,0,0,1,.618,2.961c-.008.029-.058.152-.042.17s.09-.027.092-.013-.055-.029-.057-.031a1.449,1.449,0,0,1-.11-.113,2.67,2.67,0,0,1-.354-.659,3.705,3.705,0,0,1-.25-1.485,3.472,3.472,0,0,1,.458-1.611l-.738-.1a3.18,3.18,0,0,1-.368,2.956h.7a2.644,2.644,0,0,1,.4-3.14l-.689-.286a2.959,2.959,0,0,1-.387,1.39l.752.2a3.2,3.2,0,0,1,1.19-2.661l-.592-.241a4.09,4.09,0,0,1-.253,2.223l.778.215a2.649,2.649,0,0,1,.747-1.5l-.689-.286c-.023.258-.045.517-.066.773-.039.457.683.542.793.107q.133-.533.266-1.064h-.778a4.329,4.329,0,0,1,.308,1.5l.793-.107a7.549,7.549,0,0,1-.462-1.7l-.675.392a3.1,3.1,0,0,1,.8,2.223l.793-.107a1.923,1.923,0,0,1,.031-1.434H439.3a6.261,6.261,0,0,1,.376,3.219l.793.107c.04-.415.081-.831.123-1.246h-.807a8.288,8.288,0,0,1-.562,4.256l.752.2a9.626,9.626,0,0,1,.523-3.242l-.793-.107q0,1.494-.01,2.988h.807a18.285,18.285,0,0,1,.308-4.461h-.778a6.158,6.158,0,0,1-.371,3.109h.778a8.872,8.872,0,0,1-.144-4.131l-.738.1a4.965,4.965,0,0,1-.089,4.017h.7a6.417,6.417,0,0,1-.337-4.369l-.738.1a4.663,4.663,0,0,1,.53,3.363,4.241,4.241,0,0,1-.268.828c-.01.023-.047.071-.04.09a1.651,1.651,0,0,0,.255.006,1.008,1.008,0,0,1-.076-.115,3.2,3.2,0,0,1-.153-.4,4.9,4.9,0,0,1-.239-1.815,4.735,4.735,0,0,1,.538-1.95l-.752-.2a33.849,33.849,0,0,0,.384,7.284.4.4,0,0,0,.336.289.417.417,0,0,0,.4-.192,8.336,8.336,0,0,0,.878-8.078,7.789,7.789,0,0,0-1.264-2.044.411.411,0,0,0-.572,0c-.952.843-2.254,1.183-3.156,2.1a2.988,2.988,0,0,0-.857,2.007,8.219,8.219,0,0,0,.408,2.557,13.659,13.659,0,0,0,1.116,2.73c.247.475.944.066.7-.391Z" transform="translate(-434.592 -29.928)" fill="#fff"/>
        </g>
      </g>
      <g id="Group_5" data-name="Group 5" transform="translate(80.943 29.166)">
        <g id="Group_4" data-name="Group 4" transform="translate(0 0)">
          <path id="Path_14" data-name="Path 14" d="M454.64,37.957l2.6-1.857c.415-.3.05-.964-.407-.7a7.739,7.739,0,0,0-3.23,3.713.4.4,0,0,0,.145.425.415.415,0,0,0,.449.032,8.128,8.128,0,0,0,4.094-4.927.407.407,0,0,0-.592-.455,8.828,8.828,0,0,0-3.75,4.144,1.017,1.017,0,0,0,.221,1.269c.449.308.986.061,1.414-.158a6.681,6.681,0,0,0,2.039-1.631,6.873,6.873,0,0,0,1.4-2.662.408.408,0,0,0-.5-.5,5.275,5.275,0,0,0-3.422,3.083c-.121.3.228.571.5.5a7.683,7.683,0,0,0,4.68-3.726.407.407,0,0,0-.349-.607,3.415,3.415,0,0,0-3.2,2.531.41.41,0,0,0,.5.5,4.108,4.108,0,0,0,3.206-3.732.408.408,0,0,0-.607-.349,5.192,5.192,0,0,0-2.631,2.861.4.4,0,0,0,.145.425.422.422,0,0,0,.449.032,4.906,4.906,0,0,0,2.854-4.06.406.406,0,0,0-.51-.389,3.758,3.758,0,0,0-2.467,2.633.408.408,0,0,0,.592.455,5,5,0,0,0,2.64-3.684.409.409,0,0,0-.592-.455,4.715,4.715,0,0,0-2.506,3.284.409.409,0,0,0,.5.5,3.8,3.8,0,0,0,2.652-3.941.409.409,0,0,0-.51-.389,3.03,3.03,0,0,0-2.108,2.3,1.1,1.1,0,0,0,.124.917.9.9,0,0,0,.875.253,2.183,2.183,0,0,0,1.337-.8,2.289,2.289,0,0,0,.5-1.79.4.4,0,0,0-.592-.241,3.587,3.587,0,0,0-1.663,2.472.411.411,0,0,0,.234.476.4.4,0,0,0,.5-.165,4.739,4.739,0,0,0,.643-2.355.4.4,0,0,0-.807,0q-.039.971-.079,1.942a.407.407,0,0,0,.752.2,6.457,6.457,0,0,0,1.075-3.169.408.408,0,0,0-.4-.4.413.413,0,0,0-.4.4,17.468,17.468,0,0,1-.777,3.442.4.4,0,0,0,.78.215,9.529,9.529,0,0,0,.53-3.238.4.4,0,0,0-.35-.4.4.4,0,0,0-.442.289,18.669,18.669,0,0,1-.946,3.668c-.071.194-.136.418-.362.462-.266.053-.551.011-.82.047a3.628,3.628,0,0,0-1.506.6,10.088,10.088,0,0,0-1.44,1.22l.572.571a19.46,19.46,0,0,0,2.619-3.955c.121-.244-.019-.646-.349-.607a5.3,5.3,0,0,0-3.29,1.808,13.97,13.97,0,0,0-2.11,3.547.406.406,0,0,0,.634.489,8.962,8.962,0,0,0,1.89-2.029,8.234,8.234,0,0,0,.67-1.179c.2-.433.252-1-.242-1.262-.744-.391-1.6.245-2.165.676a8.74,8.74,0,0,0-1.816,1.868,8.451,8.451,0,0,0-1.266,2.644c-.089.32.3.664.592.455a7.756,7.756,0,0,0,3.072-4.4.408.408,0,0,0-.592-.455,5.541,5.541,0,0,0-3.171,3.921.408.408,0,0,0,.592.455,6.268,6.268,0,0,0,2.908-3.558.407.407,0,0,0-.592-.455,7.282,7.282,0,0,0-3.093,3.579l.778.215q.283-.775.568-1.55a3.336,3.336,0,0,0,.368-1.354.794.794,0,0,0-1.064-.678,2.316,2.316,0,0,0-1.182.76.41.41,0,0,0,.082.634c1.162.644,2.383-.224,3.28-.925a19.74,19.74,0,0,0,2.735-2.6l-.634-.489a13.614,13.614,0,0,0-1.3,3.918c-.053.316.271.67.592.455A9.974,9.974,0,0,0,458,32.152a.406.406,0,0,0-.675-.392,6.768,6.768,0,0,0-1.991,3.878.406.406,0,0,0,.51.389,3.777,3.777,0,0,0,2.628-3.757.408.408,0,0,0-.51-.389,4.5,4.5,0,0,0-3.119,4.2.409.409,0,0,0,.689.286,11.024,11.024,0,0,0,3.771-6.109.41.41,0,0,0-.5-.5,5.847,5.847,0,0,0-4.046,3.647c-.115.31.221.552.5.5a4.839,4.839,0,0,0,3.587-3.285.409.409,0,0,0-.5-.5,4.707,4.707,0,0,0-3.553,3.393.41.41,0,0,0,.5.5,3.875,3.875,0,0,0,2.979-2.943.978.978,0,0,0-.412-1.174,1.663,1.663,0,0,0-1.245.042,4.847,4.847,0,0,0-1.957,1.577,8.429,8.429,0,0,0-1.413,2.541c-.111.32.22.542.5.5a3.347,3.347,0,0,0,1.992-1.164,3.648,3.648,0,0,0,.615-1.053,2.04,2.04,0,0,0,.144-1.261.839.839,0,0,0-1.08-.449,3.514,3.514,0,0,0-1.069.575,6.032,6.032,0,0,0-1.7,1.844c-.337.575-1.1,2-.077,2.326A1.613,1.613,0,0,0,453.8,35.1a6.462,6.462,0,0,0,1.069-.722,6.292,6.292,0,0,0,1.585-1.965,1.232,1.232,0,0,0,.136-1.254,1.129,1.129,0,0,0-.952-.45,2.426,2.426,0,0,0-1.19.342,5.258,5.258,0,0,0-1.154.828,5.357,5.357,0,0,0-1.451,2.347.408.408,0,0,0,.283.5,2.523,2.523,0,0,0,2.389-1.028,3.481,3.481,0,0,0,1.227-2.449,1.512,1.512,0,0,0-.605-1.09,1.371,1.371,0,0,0-1.387-.018,4.936,4.936,0,0,0-1.127.806,7.019,7.019,0,0,0-.909,1,6.852,6.852,0,0,0-1.243,2.748.41.41,0,0,0,.5.5,5.118,5.118,0,0,0,3.71-3.513.406.406,0,0,0-.389-.51,4.5,4.5,0,0,0-3.915,4.189.408.408,0,0,0,.4.4,3.446,3.446,0,0,0,2.549-1.245,6.909,6.909,0,0,0,1.332-2.806.409.409,0,0,0-.5-.5,4.811,4.811,0,0,0-3.753,4.32.407.407,0,0,0,.607.349,6.689,6.689,0,0,0,3.477-4.616.411.411,0,0,0-.389-.51A4.141,4.141,0,0,0,449.813,34a.411.411,0,0,0,.5.5,3.4,3.4,0,0,0,2.772-3.127.406.406,0,0,0-.51-.389,3.939,3.939,0,0,0-2.4,2.168,1.651,1.651,0,0,0-.181,1.2c.271.71,1.156.649,1.734.4a7.967,7.967,0,0,0,1.968-1.325,10.333,10.333,0,0,0,1.794-2.023c.242-.357-.22-.722-.552-.552a2.517,2.517,0,0,0-1.342,2.4.41.41,0,0,0,.51.389A6.039,6.039,0,0,0,457.848,31a.407.407,0,0,0-.455-.592,2.835,2.835,0,0,0-1.845,1.836.41.41,0,0,0,.389.51,3.492,3.492,0,0,0,3.765-3.071.407.407,0,0,0-.51-.389,2.5,2.5,0,0,0-1.886,2.284.406.406,0,0,0,.4.4,2.722,2.722,0,0,0,2.407-2.415.406.406,0,0,0-.752-.2,2.531,2.531,0,0,1-.762.793,1.732,1.732,0,0,0-.652,1.077.989.989,0,0,0,.483.965.826.826,0,0,0,1.032-.1l-.634-.489a15.8,15.8,0,0,0-1.65,4.034.409.409,0,0,0,.5.5,3.154,3.154,0,0,0,1.774-1.193.405.405,0,0,0-.349-.607,4.766,4.766,0,0,0-3.689,2.146c-.232.358.215.726.552.552a3.793,3.793,0,0,0,1.936-2.475c.063-.266-.194-.623-.5-.5a5.307,5.307,0,0,0-2.635,2.351l.455-.186a14.383,14.383,0,0,0-5.5-1c-.728.011-2.094-.031-2.112,1.015A.744.744,0,0,0,448.5,37a1.514,1.514,0,0,0,.941-.764,4.657,4.657,0,0,0,.7-2.822h-.807a4.817,4.817,0,0,1-.139,1.937l.592-.241a23.077,23.077,0,0,0-3.558-2.17.408.408,0,0,0-.521.1.4.4,0,0,0,.032.53c.168.145.337.291.505.438a.409.409,0,0,0,.675-.178,1.584,1.584,0,0,0-1.083-1.911l.283.283a1.973,1.973,0,0,1,.063-.935l-.793-.107a8.682,8.682,0,0,1-.06,1.737.4.4,0,0,0,.778.215,17.542,17.542,0,0,0,.76-2.649l-.793-.107q.01,1.4.018,2.807a.409.409,0,0,0,.689.286c.4-.358.794-.723,1.2-1.075a.985.985,0,0,1,.358-.216.331.331,0,0,1,.284.074c.55.439.41,1.277.378,1.907a1.979,1.979,0,0,0,.93,2.1,2.815,2.815,0,0,0,2.48-.439c1.045-.605,2.062-1.262,3.09-1.9l-.592-.455a13.087,13.087,0,0,1-1.274,3.045.409.409,0,0,0,.455.592,8.841,8.841,0,0,0,3.711-1.424l-.407-.7a4.1,4.1,0,0,0-1.069,1.156.406.406,0,0,0,.552.552,6.232,6.232,0,0,0,1.643-1.556c.241-.328-.228-.767-.552-.552a5.322,5.322,0,0,0-1.235,1.125.421.421,0,0,0-.063.489.411.411,0,0,0,.455.186,3.391,3.391,0,0,0,2.208-2.089c.131-.355-.305-.6-.592-.455a7.2,7.2,0,0,0-2.636,2.321.406.406,0,0,0,.063.489.42.42,0,0,0,.489.063,4.22,4.22,0,0,0,2.033-2.015.42.42,0,0,0-.063-.489.408.408,0,0,0-.489-.063,10.041,10.041,0,0,0-2.825,2.832c-.184.278.126.723.455.592a4.478,4.478,0,0,0,2.636-2.795.406.406,0,0,0-.389-.51,4.227,4.227,0,0,0-3.2,1.44.407.407,0,0,0-.032.53.4.4,0,0,0,.521.1,6.584,6.584,0,0,0,1.737-1.968,6.214,6.214,0,0,0,.539-1.24,1.3,1.3,0,0,0-.181-1.312c-.63-.664-1.694-.1-2.31.284a6.334,6.334,0,0,0-1.792,1.713,6.015,6.015,0,0,0-1.027,2.494.409.409,0,0,0,.389.51,3.441,3.441,0,0,0,3.2-2.767,1.525,1.525,0,0,0-1.214-1.626,4,4,0,0,0-2.133.055,5.308,5.308,0,0,0-3.324,2.661,1.21,1.21,0,0,0-.139,1.219,1.013,1.013,0,0,0,1.085.36,1.387,1.387,0,0,0,.954-1.782,1.527,1.527,0,0,0-1.878-.886,1.7,1.7,0,0,0-1.107,1.869,1.278,1.278,0,0,0,1.9.8,1.581,1.581,0,0,0,.78-1.886,1.809,1.809,0,0,0-1.674-1.141,1.892,1.892,0,0,0-1.693,1.232,1.957,1.957,0,0,0-.124,1.086.808.808,0,0,0,.917.638,2.6,2.6,0,0,0,2.007-1.116.872.872,0,0,0-.052-1.114,1.373,1.373,0,0,0-.962-.342,4.432,4.432,0,0,0-2.1.622,5.162,5.162,0,0,0-1.647,1.479,2.046,2.046,0,0,0-.507,1.861.732.732,0,0,0,.843.479.407.407,0,0,0,.283-.5.415.415,0,0,0-.5-.283.193.193,0,0,1,.1.006c.034.011.023.032.047.047,0,0-.026-.055-.015-.019a.59.59,0,0,1-.032-.2,1.1,1.1,0,0,1,.176-.51,4.279,4.279,0,0,1,2.238-1.939,2.448,2.448,0,0,1,1.356-.207.752.752,0,0,1,.14.065c.023.011-.01.034,0,0,0,.006-.037.081-.056.111a1.594,1.594,0,0,1-.52.481,1.821,1.821,0,0,1-.686.25,1.732,1.732,0,0,1-.182.013c-.016,0-.108,0-.11,0s.084-.132.019.01c.01-.019.031.124.023,0,0-.055-.01-.111-.01-.168a1.256,1.256,0,0,1,.625-1.075.956.956,0,0,1,1.072.137.724.724,0,0,1,.137,1.025c-.2.258-.725.515-.956.153s.084-.888.417-1.061a.713.713,0,0,1,.961.342c.129.313-.15.8-.518.746-.029,0-.1-.052-.086-.024s.031-.082.039-.108a1.929,1.929,0,0,1,.081-.187,4.644,4.644,0,0,1,.389-.659,4.527,4.527,0,0,1,2.407-1.687,3.649,3.649,0,0,1,1.469-.15c.35.047.8.2.925.528.16.434-.211,1.038-.479,1.359a2.789,2.789,0,0,1-1.2.849,2.541,2.541,0,0,1-.694.142l.389.51a5.5,5.5,0,0,1,1.976-3.389,5.149,5.149,0,0,1,.807-.53,1.676,1.676,0,0,1,.833-.279c.534.032-.1,1.23-.228,1.467a5.636,5.636,0,0,1-1.54,1.847l.489.634a3.437,3.437,0,0,1,2.628-1.2l-.389-.51a3.611,3.611,0,0,1-2.073,2.231l.455.592a9.051,9.051,0,0,1,2.535-2.543L458,34.27A3.542,3.542,0,0,1,456.255,36l.552.552a6.37,6.37,0,0,1,2.346-2.031l-.592-.455a2.535,2.535,0,0,1-1.645,1.526l.392.675a4.629,4.629,0,0,1,1.07-1l-.552-.552a5.133,5.133,0,0,1-1.353,1.267l.552.552a3.069,3.069,0,0,1,.78-.865.417.417,0,0,0,.145-.552.409.409,0,0,0-.552-.145,8.321,8.321,0,0,1-3.519,1.343l.455.592a14.01,14.01,0,0,0,1.356-3.238.408.408,0,0,0-.592-.455q-1.4.86-2.8,1.718a4.919,4.919,0,0,1-1.154.568,1.145,1.145,0,0,1-.97-.042,1.014,1.014,0,0,1-.373-.838c-.021-.408.04-.812.052-1.22a2.1,2.1,0,0,0-.946-1.929,1.258,1.258,0,0,0-1.358.221c-.468.366-.9.793-1.338,1.19l.689.286q-.01-1.4-.018-2.807c0-.442-.7-.565-.793-.107a17.787,17.787,0,0,1-.76,2.649l.778.215a9.743,9.743,0,0,0,.089-1.952.405.405,0,0,0-.793-.107,2.89,2.89,0,0,0-.063,1.364.4.4,0,0,0,.283.283.764.764,0,0,1,.52.919l.675-.178c-.168-.145-.337-.291-.505-.437l-.489.634a23.077,23.077,0,0,1,3.558,2.17.406.406,0,0,0,.592-.241,5.437,5.437,0,0,0,.168-2.15.417.417,0,0,0-.4-.4.407.407,0,0,0-.4.4A3.9,3.9,0,0,1,449,35.35a2.1,2.1,0,0,1-.51.783,1.278,1.278,0,0,0-.111.068c-.121.119-.039-.018-.031.011.126.478.029.008.05.027.053.048-.039.084.016.008a.287.287,0,0,1,.032-.048c.152-.176.622-.136.825-.145.373-.018.744-.021,1.117-.008a13.412,13.412,0,0,1,2.184.25,14.228,14.228,0,0,1,2.425.718.4.4,0,0,0,.455-.186,4.446,4.446,0,0,1,2.152-1.979l-.5-.5a3.015,3.015,0,0,1-1.564,1.992l.552.552a3.91,3.91,0,0,1,2.991-1.747l-.349-.607a2.285,2.285,0,0,1-1.292.822l.5.5a15.03,15.03,0,0,1,1.568-3.842.406.406,0,0,0-.634-.489c-.073.074-.008,0,.016,0s.018,0-.027,0c.039,0,.032,0-.018-.011.042.019-.063-.042-.063-.042.035.029-.042-.052-.016-.018-.016-.021-.052-.121-.037-.048a.34.34,0,0,1,.008-.134.7.7,0,0,1,.147-.279c.355-.45.91-.68,1.159-1.225l-.752-.2a1.9,1.9,0,0,1-1.6,1.608l.4.4a1.687,1.687,0,0,1,1.293-1.506l-.51-.389a2.69,2.69,0,0,1-2.958,2.263l.389.51a1.987,1.987,0,0,1,1.282-1.272l-.455-.592a5.224,5.224,0,0,1-3.266,2.268l.51.389a1.729,1.729,0,0,1,.941-1.7L454.774,31a9.4,9.4,0,0,1-2.782,2.677,3.337,3.337,0,0,1-.731.389,1.213,1.213,0,0,1-.283.057c-.031,0-.063,0-.094,0,0,0-.081-.006-.027,0-.027,0-.147-.05-.1-.026-.029-.015-.032-.04-.013-.006,0-.006-.026-.047-.019-.021.018.063,0-.023,0-.045a1.5,1.5,0,0,1,.126-.447,2.989,2.989,0,0,1,.415-.733,3.123,3.123,0,0,1,1.511-1.078l-.51-.389a2.6,2.6,0,0,1-2.179,2.349l.5.5a3.343,3.343,0,0,1,3.508-2.651l-.389-.51a5.922,5.922,0,0,1-3.106,4.133l.607.349A4,4,0,0,1,454.364,32l-.5-.5c-.4,1.5-1.261,3.458-3.1,3.458l.4.4a3.683,3.683,0,0,1,3.108-3.382l-.389-.51a4.305,4.305,0,0,1-3.146,2.948l.5.5a6.224,6.224,0,0,1,2.205-3.613,2.221,2.221,0,0,1,.922-.526.454.454,0,0,1,.51.333c.244.626-.334,1.295-.717,1.761-.425.517-1.077,1.266-1.832,1.086.094.166.187.331.283.5a4.549,4.549,0,0,1,2.37-2.761,1.323,1.323,0,0,1,.7-.163.232.232,0,0,1,.1.016c.027.008.057.015.082.024.065.026-.04-.023.016.011.016.01.04,0,.039.048a1.147,1.147,0,0,1-.176.415q-.124.235-.266.46a5.431,5.431,0,0,1-.588.757,5.662,5.662,0,0,1-1.579,1.2,1.346,1.346,0,0,1-.354.144c.008,0-.131.027-.1.015-.165.057-.031-.011-.036-.01s.039.029.039.029c.019-.008.1-.35.113-.4a4.326,4.326,0,0,1,.187-.436,5.222,5.222,0,0,1,1.133-1.522,3.364,3.364,0,0,1,1.455-.893c.157-.029.032.01.032,0s-.1-.063-.05-.068a.817.817,0,0,1,0,.2,2.365,2.365,0,0,1-.1.446,2.591,2.591,0,0,1-.444.833,2.669,2.669,0,0,1-1.655.978l.5.5a7.517,7.517,0,0,1,.943-1.832,5.8,5.8,0,0,1,1.358-1.435,2.05,2.05,0,0,1,.88-.389.6.6,0,0,1,.312.01c-.018-.01,0-.042,0,.042a.993.993,0,0,1-.026.218,3,3,0,0,1-.764,1.442,3.064,3.064,0,0,1-1.645.909l.5.5a3.907,3.907,0,0,1,2.99-2.83l-.5-.5a4.027,4.027,0,0,1-3.024,2.72l.5.5a5.02,5.02,0,0,1,3.482-3.083l-.5-.5a10.318,10.318,0,0,1-3.563,5.752l.689.286a3.681,3.681,0,0,1,2.526-3.418l-.51-.389a2.969,2.969,0,0,1-2.036,2.979l.51.389a5.9,5.9,0,0,1,1.753-3.306l-.675-.392a9.052,9.052,0,0,1-3.448,4.336l.592.455a12.957,12.957,0,0,1,1.219-3.726c.2-.386-.316-.854-.634-.489A19.675,19.675,0,0,1,452.5,34.9a7.733,7.733,0,0,1-1.29.9,1.386,1.386,0,0,1-1.3.124l.082.634a1.6,1.6,0,0,1,.735-.526,1.172,1.172,0,0,1,.2-.04.1.1,0,0,1-.037-.011c-.037-.076-.045-.082-.023-.016-.016.052-.027.2-.058.294-.258.786-.572,1.56-.856,2.336a.408.408,0,0,0,.283.5.415.415,0,0,0,.5-.283,6.4,6.4,0,0,1,2.722-3.1l-.592-.455a5.446,5.446,0,0,1-2.538,3.075l.592.455a4.793,4.793,0,0,1,2.8-3.439l-.592-.455a6.9,6.9,0,0,1-2.7,3.918l.592.455a7.778,7.778,0,0,1,2.271-3.658,7.211,7.211,0,0,1,.843-.659,2.077,2.077,0,0,1,.773-.387,1.61,1.61,0,0,1,.179,0c-.027,0,.006.016.031.018-.071,0,0-.107-.027-.021a2.018,2.018,0,0,1-.1.25A8.2,8.2,0,0,1,452.6,37.76l.634.489a13.825,13.825,0,0,1,1.9-3.287,4.553,4.553,0,0,1,2.8-1.668l-.349-.607a18.585,18.585,0,0,1-2.493,3.792c-.333.391.194.938.572.571a4.437,4.437,0,0,1,2.681-1.611,2.744,2.744,0,0,0,.851-.084,1.151,1.151,0,0,0,.654-.622,12.217,12.217,0,0,0,.628-1.848,18.765,18.765,0,0,0,.468-2.187l-.793-.107a8.8,8.8,0,0,1-.5,3.024l.778.215a18.515,18.515,0,0,0,.8-3.657h-.807a5.641,5.641,0,0,1-.965,2.762l.752.2q.039-.971.079-1.942h-.807a3.9,3.9,0,0,1-.533,1.949c.245.1.492.207.738.312a2.818,2.818,0,0,1,1.292-1.991l-.592-.241a1.447,1.447,0,0,1-.4,1.132,1.483,1.483,0,0,1-.5.363,1.214,1.214,0,0,1-.318.09.366.366,0,0,1-.111,0s.027.055.029.029a2.208,2.208,0,0,1,1.564-1.934l-.51-.389a3,3,0,0,1-2.06,3.163l.5.5a3.945,3.945,0,0,1,2.134-2.8l-.592-.455a4.257,4.257,0,0,1-2.268,3.2l.592.455a2.935,2.935,0,0,1,1.9-2.07l-.51-.389a4.109,4.109,0,0,1-2.456,3.363l.592.455a4.382,4.382,0,0,1,2.26-2.378l-.607-.349a3.3,3.3,0,0,1-2.614,2.954l.5.5a2.593,2.593,0,0,1,2.42-1.939l-.349-.607a6.881,6.881,0,0,1-4.2,3.355l.5.5a4.421,4.421,0,0,1,2.859-2.518l-.5-.5a6.051,6.051,0,0,1-2.5,3.477,3.4,3.4,0,0,1-.977.509.323.323,0,0,1-.14.01c-.057-.074.071-.323.1-.4a7.955,7.955,0,0,1,1.319-1.989,8.383,8.383,0,0,1,2.052-1.661l-.592-.455a7.332,7.332,0,0,1-3.723,4.444l.592.455a6.834,6.834,0,0,1,2.861-3.23l-.407-.7-2.6,1.857a.415.415,0,0,0-.145.552.406.406,0,0,0,.544.128Z" transform="translate(-444.883 -29.166)" fill="#fff"/>
        </g>
      </g>
      <g id="Group_7" data-name="Group 7" transform="translate(79.68 29.636)">
        <g id="Group_6" data-name="Group 6" transform="translate(0 0)">
          <path id="Path_15" data-name="Path 15" d="M447.159,42.986c1.881-.491,3.779-.927,5.691-1.279a16.266,16.266,0,0,1,5.061-.3,7.368,7.368,0,0,1,2.619.846v-.7a14.18,14.18,0,0,1-12.151.709l-.107.793q2.07.077,4.141.157a.407.407,0,0,0,.2-.752,4.521,4.521,0,0,0-4.527-.179.408.408,0,0,0,.1.738,9.633,9.633,0,0,0,4.8-.455c.347-.128.418-.683,0-.778a6.409,6.409,0,0,0-2.78-.021.406.406,0,0,0,0,.778,10.9,10.9,0,0,0,5.331-.358.407.407,0,0,0,0-.778,4.427,4.427,0,0,0-3.66.27.409.409,0,0,0,.1.738,5.358,5.358,0,0,0,4.351-.173.408.408,0,0,0-.1-.738,5.763,5.763,0,0,0-4.433.533.409.409,0,0,0,.1.738,6.268,6.268,0,0,0,4.42-.052.407.407,0,0,0,0-.778,5.946,5.946,0,0,0-4.54.241c-.339.16-.2.633.1.738a5.55,5.55,0,0,0,4.774-.56.408.408,0,0,0-.1-.738,5.272,5.272,0,0,0-3.268.333c-.337.147-.207.646.1.738a5.548,5.548,0,0,0,4.588-.649.409.409,0,0,0-.1-.738,3.969,3.969,0,0,0-1.811-.039,3.383,3.383,0,0,0-1.587.756.766.766,0,0,0-.216.88,1.186,1.186,0,0,0,.72.555,2.813,2.813,0,0,0,1.545.1,2.759,2.759,0,0,0,1.518-.881.409.409,0,0,0-.082-.634,2.977,2.977,0,0,0-3.379.268c-.294.237-.029.67.286.689a8.259,8.259,0,0,0,2.975-.376.407.407,0,0,0,0-.778,4.093,4.093,0,0,0-2.066.045.407.407,0,0,0,0,.778,3.448,3.448,0,0,0,2.612-.284.408.408,0,0,0-.1-.738,2.789,2.789,0,0,0-1.61-.036.407.407,0,0,0,0,.778,4.274,4.274,0,0,0,1.082.1,2.375,2.375,0,0,0,1.053-.22.546.546,0,0,0,.11-.9.5.5,0,0,0-.812.231.407.407,0,0,0,.389.51c.229,0,.46-.006.689-.011l-.107-.793a3.217,3.217,0,0,0-1.006.588.408.408,0,0,0,0,.571.828.828,0,0,0,1.332-.329.4.4,0,0,0-.145-.425.422.422,0,0,0-.449-.032,12.307,12.307,0,0,1-6.914.844V43.3a5.214,5.214,0,0,1,2.667-.266l.107-.793-3.952-.258v.807l2.725-.011a.4.4,0,0,0,0-.807q-1.269-.015-2.538-.031l.107.793a15.649,15.649,0,0,1,3.224-.287v-.807a6.094,6.094,0,0,0-2.315.589c-.376.179-.173.747.2.752a8.423,8.423,0,0,0,4.138-1.035.408.408,0,0,0-.1-.738,4.046,4.046,0,0,0-3.676.786.407.407,0,0,0,.178.675,5.635,5.635,0,0,0,4-.26.407.407,0,0,0-.1-.738,4.517,4.517,0,0,0-2.155.153.416.416,0,0,0-.3.389.4.4,0,0,0,.3.389,6.385,6.385,0,0,0,2.27-.066.405.405,0,0,0-.107-.793l-1.936.039a.4.4,0,0,0,0,.807l1.065.052a.405.405,0,0,0,.107-.793,4.821,4.821,0,0,0-2.628.257,6.357,6.357,0,0,1-2.507.31,4.059,4.059,0,0,1-2.165-.8,1.086,1.086,0,0,1-.436-.731,1.671,1.671,0,0,1,.479-.978,12.457,12.457,0,0,1,2-2.071.4.4,0,0,0,.084-.441.422.422,0,0,0-.368-.249,4.876,4.876,0,0,0-2.029.17l.455.592a3.572,3.572,0,0,0,.473-2.864,2.039,2.039,0,0,0-1.971-1.421l.349.607a5.635,5.635,0,0,1,1.576-1.395l-.407-.7-1.869,1.237a.407.407,0,0,0,.2.752c.365-.01.728-.019,1.093-.031l.507-.015a.846.846,0,0,0,.239,0c.011-.008.119.124-.034-.039-.074-.079-.029-.031-.036.023-.084.578-.484,1.035-.607,1.6a1.562,1.562,0,0,0,.363,1.451c.525.491,1.2.187,1.731-.129a6.283,6.283,0,0,0,1.613-1.392l-.634-.489a15.41,15.41,0,0,0-1.062,1.865,2.251,2.251,0,0,0-.344.965.729.729,0,0,0,.717.667,1.852,1.852,0,0,0,1.506-.613,1.93,1.93,0,0,0,.5-1.65.407.407,0,0,0-.592-.241,3.564,3.564,0,0,0-1.713,2.139.407.407,0,0,0,.675.392,3.823,3.823,0,0,0,.949-1.582A1.647,1.647,0,0,0,452,36.1a.79.79,0,0,0-.654-.536,2.067,2.067,0,0,0-1.522.643,4.077,4.077,0,0,0-1.053,1.363c-.242.512-.565,1.3-.116,1.787.431.47,1.125.266,1.627.047a3.843,3.843,0,0,0,2.146-2.428.885.885,0,0,0-.2-.9,1.2,1.2,0,0,0-.893-.22,3.362,3.362,0,0,0-1.535.481,3.528,3.528,0,0,0-1.7,2.693.866.866,0,0,0,.313.86,1.052,1.052,0,0,0,.841.063,2.135,2.135,0,0,0,1.17-.872,2.419,2.419,0,0,0-.006-2.77,3.029,3.029,0,0,0-2.862-1.12,3.79,3.79,0,0,0-2.614,1.921,5.119,5.119,0,0,0-.358.777.407.407,0,0,0,.5.5,2.663,2.663,0,0,0,1.608-1.166,1.313,1.313,0,0,0-.481-1.647c-.707-.4-1.4.31-1.865.77a8.126,8.126,0,0,0-2.2,3.918.417.417,0,0,0,.283.5,1.058,1.058,0,0,0,1.256-.546,1.162,1.162,0,0,0-.179-1.422,1.618,1.618,0,0,0-1.442-.368,2.185,2.185,0,0,0-1.317.967,5,5,0,0,0-.738,1.69,2.315,2.315,0,0,0,.232,1.8,1.585,1.585,0,0,0,1.387.772,1.813,1.813,0,0,0,1.354-.886,4.055,4.055,0,0,0,.019-3.952.414.414,0,0,0-.552-.145,2.383,2.383,0,0,0-1.185,1.19,1.487,1.487,0,0,0,.113,1.716,1.247,1.247,0,0,0,1.506.018,2.35,2.35,0,0,0,.77-1.622c.037-.229-.1-.542-.389-.51a2.58,2.58,0,0,0-2.265,2.037.409.409,0,0,0,.592.455,2.483,2.483,0,0,0,1.325-2.535.818.818,0,0,0-1.219-.539,1.391,1.391,0,0,0-.567,1.416.409.409,0,0,0,.689.286,2,2,0,0,0,.452-1.882.41.41,0,0,0-.675-.178A3.864,3.864,0,0,0,440.2,40.75a.415.415,0,0,0,.186.455.4.4,0,0,0,.489-.063,1.515,1.515,0,0,0-.071-1.9,5.882,5.882,0,0,0-1.75-1.24l-.509-.3a1.373,1.373,0,0,0-.568-.234c-.426-.031-.644.289-.754.655a4.367,4.367,0,0,0,.86,4.018c.294.352.88-.107.634-.489a4.384,4.384,0,0,1-.641-3.127H437.3a8.147,8.147,0,0,0,2.646,4.226l.489-.634a3.22,3.22,0,0,1-1.359-3.161H438.3a14.955,14.955,0,0,0,1.661,3.211.41.41,0,0,0,.738-.1,7.535,7.535,0,0,0,.32-2.849l-.752.2a11.173,11.173,0,0,0,1.8,2.672.406.406,0,0,0,.572,0,1.531,1.531,0,0,0,.239-1.693.407.407,0,0,0-.455-.186.423.423,0,0,0-.3.389,2.1,2.1,0,0,0,.773,1.847.411.411,0,0,0,.675-.178,2.226,2.226,0,0,0,.1-1.2l-.778.215a3.209,3.209,0,0,0,.668,1.235.408.408,0,0,0,.689-.286,1.95,1.95,0,0,0-.541-1.338.41.41,0,0,0-.489-.063.423.423,0,0,0-.186.455c.044.315.089.63.132.943a.407.407,0,0,0,.5.283.415.415,0,0,0,.283-.5c-.044-.315-.089-.63-.132-.943l-.675.392a1.11,1.11,0,0,1,.305.767l.689-.286a2.284,2.284,0,0,1-.462-.88.4.4,0,1,0-.78.215,1.44,1.44,0,0,1-.1.768l.675-.178a1.374,1.374,0,0,1-.536-1.277l-.752.2a.688.688,0,0,1-.113.715h.572a10.454,10.454,0,0,1-1.677-2.509.407.407,0,0,0-.752.2,6.928,6.928,0,0,1-.291,2.635l.738-.1a14.1,14.1,0,0,1-1.579-3.017.42.42,0,0,0-.389-.3.4.4,0,0,0-.389.3,4.059,4.059,0,0,0,1.731,4.073c.376.25.843-.337.489-.634a7.424,7.424,0,0,1-2.438-3.87.407.407,0,0,0-.778,0,5.227,5.227,0,0,0,.722,3.75l.634-.489a3.539,3.539,0,0,1-.752-1.679,3.593,3.593,0,0,1-.031-.893,3.109,3.109,0,0,1,.058-.387,3.47,3.47,0,0,0,.118-.41c-.131.018-.171.044-.119.076.024.015.048.029.074.042.09.052.181.107.271.16l.475.279c.313.184.633.358.935.559a1.645,1.645,0,0,1,.612.615.655.655,0,0,1,.008.638l.675.392a3.183,3.183,0,0,1,1.177-1.868l-.675-.178a1.158,1.158,0,0,1-.245,1.1l.689.286c-.01-.221-.058-.636.166-.718-.006,0,.06-.015.074,0,0,0-.048,0-.048-.008a1.675,1.675,0,0,1-.946,1.689l.592.455a1.772,1.772,0,0,1,1.487-1.445l-.389-.51a2.066,2.066,0,0,1-.387,1.117.537.537,0,0,1-.31.155.369.369,0,0,1-.265-.053c-.173-.166.011-.662.123-.865a1.691,1.691,0,0,1,.819-.744l-.552-.145a3.429,3.429,0,0,1,.257,2.525c-.157.544-.686,1.413-1.354.993-.752-.473-.449-1.543-.166-2.194.273-.628.735-1.443,1.514-1.351.255.031.512.2.492.434a.546.546,0,0,1-.15.3.289.289,0,0,1-.123.077c-.09.023-.034,0-.019,0-.05,0-.058,0-.023,0a.686.686,0,0,1-.087-.029c.094.166.187.331.283.5a7.319,7.319,0,0,1,1.456-2.972,5.742,5.742,0,0,1,1.193-1.156.385.385,0,0,1,.224-.082.2.2,0,0,1,.09.069.6.6,0,0,1,.119.4.533.533,0,0,1-.118.265,1.11,1.11,0,0,1-.242.226,3.521,3.521,0,0,1-.775.379l.5.5c.525-1.422,2.042-2.622,3.586-1.957a1.7,1.7,0,0,1,1.1,1.548,1.613,1.613,0,0,1-.875,1.434,1.013,1.013,0,0,1-.257.073c-.011,0-.086.013-.081,0-.015.027.216-.2.032.036a.287.287,0,0,0,.031.032.563.563,0,0,1,0-.074c.01-.053,0-.116.008-.171a2.119,2.119,0,0,1,.045-.284,2.647,2.647,0,0,1,.484-1.02,2.687,2.687,0,0,1,1.845-1.059,1.857,1.857,0,0,1,.284-.006.347.347,0,0,1,.123.016c.026.018-.019-.045-.018-.023a1.1,1.1,0,0,1-.145.45,3.223,3.223,0,0,1-.707.986,3.064,3.064,0,0,1-.956.62,1.329,1.329,0,0,1-.488.126c-.128,0-.149-.018-.134-.166a2.9,2.9,0,0,1,.588-1.3,3.239,3.239,0,0,1,1.038-.914c.087-.047.375-.158.4-.084-.031-.076-.044.1-.042.09a2.432,2.432,0,0,1-.079.337,2.946,2.946,0,0,1-.751,1.256l.675.392a2.751,2.751,0,0,1,1.342-1.656l-.592-.241a1.068,1.068,0,0,1-.3.864,1.275,1.275,0,0,1-.423.31,1.382,1.382,0,0,1-.457.074c-.1.008-.048-.066-.015.034a.083.083,0,0,1,.047.092c0-.019.011-.039.016-.06.045-.094.082-.194.126-.287q.162-.354.344-.7a15.59,15.59,0,0,1,.814-1.369c.25-.376-.341-.846-.634-.489a5.616,5.616,0,0,1-1.28,1.161,2.042,2.042,0,0,1-.778.394c-.137.013-.192-.048-.25-.174a.953.953,0,0,1-.06-.476,2.588,2.588,0,0,1,.3-.735c.241-.489.622-1.329.077-1.76a1.659,1.659,0,0,0-1.095-.145l-1.209.034.2.752,1.869-1.237c.429-.284.042-.967-.407-.7a6.668,6.668,0,0,0-1.866,1.685.406.406,0,0,0,.349.607,1.242,1.242,0,0,1,1.23.936A2.868,2.868,0,0,1,448,37.5a.407.407,0,0,0,.455.592,4.309,4.309,0,0,1,1.815-.14l-.286-.689a12.943,12.943,0,0,0-1.955,2.012,3.465,3.465,0,0,0-.709,1.193,1.559,1.559,0,0,0,.21,1.246,3.63,3.63,0,0,0,2.163,1.337,6.052,6.052,0,0,0,2.859.065c.985-.215,2.02-.76,3.043-.484l.107-.793-1.065-.052V42.6l1.936-.039-.107-.793a5.263,5.263,0,0,1-1.84.066v.778a3.649,3.649,0,0,1,1.727-.153l-.1-.738a4.8,4.8,0,0,1-3.374.179c.06.224.119.45.178.675a3.208,3.208,0,0,1,2.891-.578l-.1-.738a7.6,7.6,0,0,1-3.729.925l.2.752a5.049,5.049,0,0,1,1.908-.479.4.4,0,0,0,0-.807,16.729,16.729,0,0,0-3.439.316c-.455.089-.337.788.107.793q1.269.015,2.538.031v-.807l-2.725.011a.4.4,0,0,0,0,.807l3.952.258c.447.029.559-.717.107-.793a6.034,6.034,0,0,0-3.1.266.418.418,0,0,0-.3.389.4.4,0,0,0,.3.389,13.28,13.28,0,0,0,7.538-.925l-.592-.455c.034-.082.011-.013-.008-.039.016.021.01-.029-.024,0,.013-.01.04.006.05.015v.571a2.1,2.1,0,0,1,.649-.381.406.406,0,0,0-.107-.793c-.229,0-.46.006-.689.011l.389.51c0-.01,0-.021.008-.031-.034.06-.069.119-.1.178a.111.111,0,0,0,.018-.021l-.178.1a.357.357,0,0,1-.218-.047c-.034-.06-.069-.119-.1-.178-.15-.36.2-.234.013-.223-.069,0-.152.034-.221.045a2.989,2.989,0,0,1-.379.037,3.242,3.242,0,0,1-.828-.071v.778a2.015,2.015,0,0,1,1.18.036l-.1-.738a2.614,2.614,0,0,1-1.991.2v.778a3.216,3.216,0,0,1,1.637-.045v-.778a7.579,7.579,0,0,1-2.761.347l.286.689a2.151,2.151,0,0,1,2.4-.14l-.082-.634a2.027,2.027,0,0,1-1.162.673,1.811,1.811,0,0,1-1.253-.166.22.22,0,0,0-.039-.021c-.042-.048-.052-.055-.031-.021a.073.073,0,0,1,.011.063l.024-.019a1.059,1.059,0,0,0,.115-.092c.055-.037.11-.073.166-.107a3.006,3.006,0,0,1,.749-.318,3.115,3.115,0,0,1,1.606-.015l-.1-.738a4.754,4.754,0,0,1-3.967.567l.1.738a4.338,4.338,0,0,1,2.646-.252l-.1-.738a4.765,4.765,0,0,1-4.152.478l.1.738a5.128,5.128,0,0,1,3.918-.16V41.94a5.567,5.567,0,0,1-3.991.052l.1.738a4.939,4.939,0,0,1,3.81-.452l-.1-.738a4.573,4.573,0,0,1-3.728.092l.1.738a3.638,3.638,0,0,1,3.038-.187V41.4a10.046,10.046,0,0,1-4.9.358v.778a5.421,5.421,0,0,1,2.351.021v-.778a8.814,8.814,0,0,1-4.37.455l.1.738a3.7,3.7,0,0,1,3.711.179l.2-.752q-2.071-.077-4.141-.157a.4.4,0,0,0-.4.35.41.41,0,0,0,.289.442,15.038,15.038,0,0,0,10.088.363,14.706,14.706,0,0,0,2.683-1.153.407.407,0,0,0,0-.7c-3.242-1.811-7.215-.9-10.628-.153q-1.69.368-3.364.807a.4.4,0,0,0,.213.78Z" transform="translate(-437.06 -32.077)" fill="#fff"/>
        </g>
      </g>
      <g id="Group_9" data-name="Group 9" transform="translate(65.416 79.858)">
        <g id="Group_8" data-name="Group 8">
          <path id="Path_16" data-name="Path 16" d="M348.988,352.69a14.943,14.943,0,0,0,8.44-.205.405.405,0,0,0-.107-.793l-5.587-.044v.807a17.667,17.667,0,0,0,6.621-1.1,7.865,7.865,0,0,0,1.643-.988.4.4,0,0,0,.032-.53.406.406,0,0,0-.521-.1,15.916,15.916,0,0,1-6.427,1.85.405.405,0,0,0-.107.793,5.183,5.183,0,0,0,3.161-.308c1.075-.375,2.139-.78,3.208-1.172.479-.176.294-.92-.215-.778a12.755,12.755,0,0,1-6.038.2l-.107.793c2.5.178,5.16.312,7.449-.9l-.407-.7a21.018,21.018,0,0,1-6.115,2.407c.1.245.207.492.312.738a8.737,8.737,0,0,1,3.137-.517,5.052,5.052,0,0,0,3.083-1.036c.315-.278-.023-.767-.392-.675a20.475,20.475,0,0,0-5.282,2.125.407.407,0,0,0,.2.752,9.349,9.349,0,0,0,6.288-2.723.407.407,0,0,0-.392-.675c-2.573.872-5.363,1.813-8.1,1.166l-.107.793a21.863,21.863,0,0,0,3.854-.738.407.407,0,0,0,0-.778,5.327,5.327,0,0,0-3.879.378.407.407,0,0,0,.2.752,6.081,6.081,0,0,0,3.216-1,.409.409,0,0,0-.1-.738,2.32,2.32,0,0,0-2.394.773.407.407,0,0,0,.392.675,4.7,4.7,0,0,0,2.686-1.673c.313-.4.764-.982.626-1.522-.166-.659-1.017-.631-1.55-.562a1.245,1.245,0,0,0-1.2,1.387c.047.281.381.337.592.241a7.179,7.179,0,0,0,3.458-3.364c.14-.287-.1-.722-.455-.592a4.814,4.814,0,0,0-2.891,2.864c-.118.318.224.542.5.5a5.093,5.093,0,0,0,4.041-3.871.408.408,0,0,0-.592-.455,7.849,7.849,0,0,0-3.083,3.2.408.408,0,0,0,.455.592,4.221,4.221,0,0,0,3.272-3.776.4.4,0,0,0-.51-.389,4.945,4.945,0,0,0-2.985,3.684.41.41,0,0,0,.5.5,5.346,5.346,0,0,0,3.805-4.01.409.409,0,0,0-.592-.455,5.06,5.06,0,0,0-2.8,3.264.408.408,0,0,0,.592.455,4.408,4.408,0,0,0,2.207-2.515.407.407,0,0,0-.592-.455,4.673,4.673,0,0,0-1.626,1.811c-.171.344.189.776.552.552a3.651,3.651,0,0,0,1.361-1.479.406.406,0,0,0-.634-.489,5.8,5.8,0,0,0-1.569,2,.407.407,0,0,0,.552.552,4.7,4.7,0,0,0,2.173-2.481c.136-.352-.308-.6-.592-.455a4.283,4.283,0,0,0-2.134,2.688.408.408,0,0,0,.5.5,4.277,4.277,0,0,0,2.833-2.778.407.407,0,0,0-.592-.455,3.779,3.779,0,0,0-1.306,1.414,3.65,3.65,0,0,0-.344.925,1.084,1.084,0,0,0,.136,1.033c.531.538,1.387-.113,1.824-.468a4.563,4.563,0,0,0,1.656-3.537.408.408,0,0,0-.607-.349,6.049,6.049,0,0,0-2.807,3.7c-.069.268.2.62.5.5a4.311,4.311,0,0,0,2.646-3.469c.039-.316-.368-.488-.607-.349a7.243,7.243,0,0,0-3.264,4.1.408.408,0,0,0,.593.455,6.253,6.253,0,0,0,2.888-3.232.406.406,0,0,0-.592-.455,6.854,6.854,0,0,0-2.506,3.347.405.405,0,0,0,.389.51c1.446-.089,2.391-1.279,3.043-2.454a3.3,3.3,0,0,0,.447-.977.654.654,0,0,0-.743-.773,3.374,3.374,0,0,0-1.868,1.024,3.879,3.879,0,0,0-1.09,2.107.41.41,0,0,0,.5.5,4.9,4.9,0,0,0,3.219-3.284.407.407,0,0,0-.675-.392,10.527,10.527,0,0,0-2.351,3.054.406.406,0,0,0,.634.489,9.248,9.248,0,0,0,2.136-2.354c.252-.4-.308-.8-.634-.489a6.531,6.531,0,0,0-1.456,2.037.409.409,0,0,0,.455.592,3.134,3.134,0,0,0,2.549-2.746c.036-.318-.365-.484-.607-.349a7,7,0,0,0-3.1,3.6c-.132.344.31.617.592.455a8.428,8.428,0,0,0,3.511-3.831.422.422,0,0,0-.063-.489.406.406,0,0,0-.489-.063,7.769,7.769,0,0,0-3,3.908.407.407,0,0,0,.5.5,5.755,5.755,0,0,0,3.364-3.135.422.422,0,0,0-.063-.489.415.415,0,0,0-.489-.063,10.271,10.271,0,0,0-3.747,3.5c-.384.605-.694,1.48-1.445,1.713a4.062,4.062,0,0,1-1.311.09q-.76-.019-1.519-.048-1.758-.068-3.516-.186v.807a8.294,8.294,0,0,0,4.643-1.375.409.409,0,0,0-.1-.738,6.33,6.33,0,0,0-2.869,0,6.181,6.181,0,0,0-1.384.507c-.4.2-.864.465-.86.972a.938.938,0,0,0,.78.825,2.944,2.944,0,0,0,1.245-.032,5.846,5.846,0,0,0,2.294-.961,5.917,5.917,0,0,0,1.873-2.107c.15-.289-.1-.718-.455-.592a5.635,5.635,0,0,0-3.558,3.883.41.41,0,0,0,.5.5,4.854,4.854,0,0,0,3.492-2.51.408.408,0,0,0-.455-.592,3.442,3.442,0,0,0-2.081,1.784c-.14.3.1.71.455.592A6.092,6.092,0,0,0,359,346.938a.408.408,0,0,0-.389-.51,2.793,2.793,0,0,0-2.7,1.837c-.111.307.22.559.5.5a4.42,4.42,0,0,0,3.2-2.974.406.406,0,0,0-.389-.51,2.413,2.413,0,0,0-1.748.841c-.389.463-.885,1.519.01,1.75a1.531,1.531,0,0,0,.978-.184,3.182,3.182,0,0,0,.772-.5,3.223,3.223,0,0,0,1.017-1.647.408.408,0,0,0-.5-.5,5.241,5.241,0,0,0-2.609,1.95.4.4,0,0,0,.063.489.517.517,0,0,0,.633.066.508.508,0,0,0,.228-.592.418.418,0,0,0-.5-.283.408.408,0,0,0-.283.5c0-.013,0-.027,0-.04.018-.068.037-.136.055-.2l.286-.1.178.1a.327.327,0,0,0-.027-.023l.063.489a4.323,4.323,0,0,1,2.126-1.579l-.5-.5a2.434,2.434,0,0,1-1.652,1.744c-.05.015-.139.013-.145.018-.047-.015-.031,0,.047.031.027.131.047.16.06.086a.785.785,0,0,0,.047-.144,1.533,1.533,0,0,1,.334-.5,1.583,1.583,0,0,1,1.061-.476l-.389-.51a3.6,3.6,0,0,1-2.635,2.41l.5.5a1.974,1.974,0,0,1,1.924-1.245l-.389-.51a5.23,5.23,0,0,1-3.282,3.229l.455.592a2.65,2.65,0,0,1,1.6-1.413l-.455-.592a4.105,4.105,0,0,1-3.011,2.139l.5.5a4.8,4.8,0,0,1,2.993-3.319l-.455-.592a5.165,5.165,0,0,1-2.987,2.522,2.509,2.509,0,0,1-1.708.121c.034.016-.065-.026,0,.015,0,0,.006.045,0,.044s.006-.018.008-.018.142-.1.155-.111c.1-.058.2-.113.3-.165a5.269,5.269,0,0,1,1.057-.392,5.439,5.439,0,0,1,2.573-.035l-.1-.738a7.519,7.519,0,0,1-4.236,1.266.4.4,0,0,0,0,.807q1.6.107,3.195.173.78.031,1.56.053a8.27,8.27,0,0,0,1.442-.032,2.217,2.217,0,0,0,1.222-.583,4.4,4.4,0,0,0,.743-1.033,10.222,10.222,0,0,1,1.476-2.007,9.5,9.5,0,0,1,2.307-1.752l-.552-.552a4.982,4.982,0,0,1-2.882,2.764l.5.5a6.858,6.858,0,0,1,2.63-3.426l-.552-.552a7.713,7.713,0,0,1-3.222,3.542l.593.455a6.136,6.136,0,0,1,2.73-3.117l-.607-.349a2.339,2.339,0,0,1-1.957,1.968l.455.592a5.97,5.97,0,0,1,1.329-1.874l-.634-.489a8.685,8.685,0,0,1-2.01,2.191l.634.489a9.892,9.892,0,0,1,2.225-2.891l-.675-.392a4.063,4.063,0,0,1-2.656,2.719l.5.5a3.158,3.158,0,0,1,1.84-2.41,2.547,2.547,0,0,1,.312-.11.627.627,0,0,1,.137-.026c.006-.029-.231-.132-.153-.186-.015.01-.026.092-.034.11a6.276,6.276,0,0,1-.352.668,5.984,5.984,0,0,1-.928,1.295,2.174,2.174,0,0,1-1.39.709l.389.51a5.924,5.924,0,0,1,2.134-2.864l-.593-.455a5.4,5.4,0,0,1-2.517,2.751l.593.455a6.4,6.4,0,0,1,2.893-3.615l-.607-.349a3.465,3.465,0,0,1-2.053,2.691l.5.5a5.234,5.234,0,0,1,2.438-3.221l-.607-.349a3.749,3.749,0,0,1-1.553,3.066,3.875,3.875,0,0,1-.383.237,1.1,1.1,0,0,0-.165.078c-.1.1-.034-.066,0,.053.045.179.034-.032.037-.068a1.693,1.693,0,0,1,.048-.239,3.113,3.113,0,0,1,.137-.436,2.953,2.953,0,0,1,1.128-1.361l-.592-.455a3.432,3.432,0,0,1-2.27,2.215l.5.5a3.485,3.485,0,0,1,1.763-2.207l-.592-.455a3.864,3.864,0,0,1-1.8,2l.552.552a5.255,5.255,0,0,1,1.443-1.839l-.634-.489a2.855,2.855,0,0,1-1.07,1.19l.552.552a3.876,3.876,0,0,1,1.337-1.522l-.592-.455a3.6,3.6,0,0,1-1.836,2.033l.592.455a4.289,4.289,0,0,1,2.425-2.782l-.592-.455a4.54,4.54,0,0,1-3.242,3.447l.5.5a4.142,4.142,0,0,1,2.422-3.121l-.51-.389a3.409,3.409,0,0,1-2.68,3l.455.592a7.074,7.074,0,0,1,2.793-2.916l-.592-.455a4.309,4.309,0,0,1-3.477,3.308l.5.5a3.937,3.937,0,0,1,2.328-2.3l-.455-.592a6.488,6.488,0,0,1-3.169,3.074l.592.241c-.021-.126.15-.26.249-.307a1.753,1.753,0,0,1,.793-.079,1.112,1.112,0,0,1,.168.007c-.1-.034-.016-.055-.013-.037a.356.356,0,0,1-.034.126,2.756,2.756,0,0,1-.392.641,3.944,3.944,0,0,1-2.323,1.456l.392.675a1.535,1.535,0,0,1,1.61-.565l-.1-.738a5.283,5.283,0,0,1-2.809.891l.2.752a4.47,4.47,0,0,1,3.258-.3v-.778a20.827,20.827,0,0,1-3.639.709.409.409,0,0,0-.4.35.4.4,0,0,0,.289.442c2.891.683,5.8-.244,8.529-1.166l-.392-.675a8.51,8.51,0,0,1-5.717,2.486l.2.752a19.654,19.654,0,0,1,5.089-2.042l-.392-.675a4.57,4.57,0,0,1-2.806.822,8.7,8.7,0,0,0-3.25.605c-.429.205-.116.833.312.738a21.784,21.784,0,0,0,6.309-2.488.4.4,0,0,0-.407-.7c-2.15,1.138-4.7.956-7.042.789a.405.405,0,0,0-.107.793,13.673,13.673,0,0,0,6.467-.2c-.071-.26-.144-.518-.215-.778-1.022.375-2.042.756-3.067,1.122a4.689,4.689,0,0,1-2.872.357l-.107.793a16.9,16.9,0,0,0,6.834-1.96l-.489-.634c-2.155,1.666-5.089,1.765-7.694,1.848a.4.4,0,0,0,0,.807l5.587.044-.107-.793a14.154,14.154,0,0,1-8.011.205.4.4,0,0,0-.226.767Z" transform="translate(-348.703 -343.166)" fill="#fff"/>
        </g>
      </g>
      <g id="Group_11" data-name="Group 11" transform="translate(89.109 38.753)">
        <g id="Group_10" data-name="Group 10">
          <path id="Path_17" data-name="Path 17" d="M495.767,90.542a11.926,11.926,0,0,0,4.4-.04c-.1-.245-.207-.492-.312-.738a5.9,5.9,0,0,1-3.608.357l-.107.793c1.067.044,2.134.1,3.2.131a3.269,3.269,0,0,0,2.439-.681c.379-.36-.186-.917-.571-.571-1.333,1.2-3.3.806-4.84.328-.071.26-.144.518-.215.778a11.516,11.516,0,0,0,6.913-.465c-.1-.245-.207-.492-.312-.738a7.343,7.343,0,0,1-5.376,1.251l-.107.793c2.591-.1,5.334-.231,7.6-1.631l-.489-.634c-1.488,1.768-3.97,1.811-6.094,1.792v.807c2.517-.258,5.158-.578,7.2-2.207l-.571-.571c-1.624,1.7-4.126,2.034-6.348,2.3a.41.41,0,0,0-.4.35.4.4,0,0,0,.289.442,8.5,8.5,0,0,0,4.131-.426q2.01-.6,3.965-1.366,1.124-.441,2.226-.933l-.489-.634c-1.12,1.188-2.838,1.43-4.388,1.543-1.028.076-2.058.123-3.087.182l-1.6.092a1.153,1.153,0,0,1-.37.018c-.053-.023.016.013.016.013s0-.255-.011-.061a1.18,1.18,0,0,1,.06-.421c.392-.961,1.653-.965,2.515-.973a.405.405,0,0,0,.107-.793,2.866,2.866,0,0,0-1.556.068c-.489.165-.282.941.215.778l.339-.111a.4.4,0,0,0-.215-.778,4.127,4.127,0,0,0-1.774.946.406.406,0,0,0,.178.675,2.229,2.229,0,0,0,1.051-.069c-.1-.245-.207-.492-.312-.738l-2.536,1.894.607.349c0-.184-.008-.368-.013-.552a.4.4,0,0,0-.807,0c0,.184.008.368.013.552.006.278.35.541.607.349l2.536-1.894a.408.408,0,0,0,.165-.5.4.4,0,0,0-.476-.234,1.336,1.336,0,0,1-.622.069c.06.224.119.45.178.675a3.279,3.279,0,0,1,1.419-.739c-.071-.26-.144-.518-.215-.778l-.339.111c.071.26.144.518.215.778a2.061,2.061,0,0,1,1.127-.068l.107-.793a3.586,3.586,0,0,0-2.967.99,1.709,1.709,0,0,0-.386,1.427.8.8,0,0,0,.481.584,2.29,2.29,0,0,0,.9.026l3.674-.211a17.34,17.34,0,0,0,2.959-.349,5.454,5.454,0,0,0,2.772-1.479.406.406,0,0,0-.489-.634q-1.816.809-3.694,1.469a26.887,26.887,0,0,1-3.862,1.143,5.556,5.556,0,0,1-2.147.032l-.107.793c2.438-.291,5.135-.665,6.918-2.535a.4.4,0,0,0-.571-.571c-1.852,1.476-4.359,1.739-6.632,1.971a.416.416,0,0,0-.4.4.408.408,0,0,0,.4.4c2.333.023,5.039-.094,6.666-2.028a.409.409,0,0,0,.032-.53.4.4,0,0,0-.52-.1c-2.146,1.324-4.746,1.43-7.2,1.521a.406.406,0,0,0-.4.35.4.4,0,0,0,.289.442,8.16,8.16,0,0,0,6-1.333.406.406,0,0,0,.165-.5.4.4,0,0,0-.476-.234,10.773,10.773,0,0,1-6.483.465.4.4,0,0,0-.215.778c1.855.573,4.055.877,5.626-.536l-.571-.571a2.753,2.753,0,0,1-2.049.437c-1.007-.039-2.013-.082-3.021-.124a.405.405,0,0,0-.107.793,6.825,6.825,0,0,0,4.23-.439.4.4,0,0,0,.165-.5.408.408,0,0,0-.476-.234,10.831,10.831,0,0,1-3.97.04.405.405,0,1,0-.208.783Z" transform="translate(-495.467 -88.548)" fill="#fff"/>
        </g>
      </g>
    </g>
  </g>
</svg>
